<?xml version="1.0" standalone="no"?><!DOCTYPE svg PUBLIC "-//W3C//DTD SVG 1.1//EN" "http://www.w3.org/Graphics/SVG/1.1/DTD/svg11.dtd"><svg t="1611545332948" class="icon" viewBox="0 0 1024 1024" version="1.1" xmlns="http://www.w3.org/2000/svg" p-id="9394" xmlns:xlink="http://www.w3.org/1999/xlink" width="32" height="32"><defs><style type="text/css"></style></defs><path d="M563.627541 550.95893c5.544996-5.417035 9.810378-11.90041501 12.582876-19.023602 0.981038-2.431268 0.981038-5.118458 1.663498-7.677687 0.938384-4.09476601 2.217998-7.890956 2.217999-12.028377 0-4.13742-1.279615-7.890956-2.217999-11.90041501-0.682461-2.559229-0.682461-5.24642-1.706152-7.67768699a54.511578 54.511578 0 0 0-12.540222-19.194218L93.155937 16.463947A56.047116 56.047116 0 0 0 15.568643 15.354948 52.29358 52.29358 0 0 0 16.677643 90.724243L450.42431 512.14395701 16.592335 933.563671a52.29358 52.29358 0 0 0-1.066346 75.36929499c21.753447 20.473832 56.431 20.047294 77.54464-1.06634599L563.627541 550.95893z" p-id="9395" fill="#2F6FD5"></path><path d="M460.234688 90.724243L894.024009 512.143957l-433.789321 421.505021c-21.753447 20.473832-22.222639 54.170348-1.15165301 75.283988 10.40753101 9.810378 24.44063699 15.270067 39.02824201 15.056797 14.50229799-0.213269 28.407442-6.014188 38.516397-16.20845l470.556912-457.078306c5.502342-5.417035 9.767724-11.857761 12.540222-18.980948 1.151653-2.34596 1.15165301-4.990497 1.706153-7.67768699 0.981038-3.966805 2.260652-7.762995 2.260652-11.90041501 0-4.13742-1.279615-7.848302-2.217999-11.85776199-0.682461-2.559229-0.682461-5.24642-1.70615199-7.67768701a53.871771 53.871771 0 0 0-12.45491501-19.194217L536.79829 16.37863901a56.132423 56.132423 0 0 0-77.587294-0.98103802 52.421541 52.421541 0 0 0 1.023692 75.36929502z" p-id="9396" fill="#2F6FD5"></path></svg>