<?xml version="1.0" encoding="utf-8"?>
<svg version="1.1" xmlns:xlink="http://www.w3.org/1999/xlink" width="16px" height="15px" xmlns="http://www.w3.org/2000/svg">
  <g transform="matrix(1 0 0 1 -1444 -568 )">
    <path d="M 2.37 12.3193359375  C 2.49666666666667 12.1988932291667  2.56 12.05078125  2.56 11.875  C 2.56 11.7057291666667  2.49666666666667 11.5592447916667  2.37 11.435546875  C 2.24333333333333 11.3118489583333  2.09333333333333 11.25  1.92 11.25  C 1.74 11.25  1.58833333333333 11.3118489583333  1.465 11.435546875  C 1.34166666666667 11.5592447916667  1.28 11.7057291666667  1.28 11.875  C 1.28 12.05078125  1.34166666666667 12.1988932291667  1.465 12.3193359375  C 1.58833333333333 12.4397786458333  1.74 12.5  1.92 12.5  C 2.09333333333333 12.5  2.24333333333333 12.4397786458333  2.37 12.3193359375  Z M 3.97 6.435546875  C 4.09666666666667 6.55924479166667  4.16 6.70572916666667  4.16 6.875  L 4.16 13.125  C 4.16 13.2942708333333  4.09666666666667 13.4407552083333  3.97 13.564453125  C 3.84333333333333 13.6881510416667  3.69333333333333 13.75  3.52 13.75  L 0.64 13.75  C 0.466666666666667 13.75  0.316666666666667 13.6881510416667  0.19 13.564453125  C 0.0633333333333333 13.4407552083333  0 13.2942708333333  0 13.125  L 0 6.875  C 0 6.70572916666667  0.0633333333333333 6.55924479166667  0.19 6.435546875  C 0.316666666666667 6.31184895833333  0.466666666666667 6.25  0.64 6.25  L 3.52 6.25  C 3.69333333333333 6.25  3.84333333333333 6.31184895833333  3.97 6.435546875  Z M 15.43 5.556640625  C 15.81 5.927734375  16 6.3671875  16 6.875  C 16 7.43489583333333  15.8166666666667 7.919921875  15.45 8.330078125  C 15.55 8.61653645833333  15.6 8.86393229166667  15.6 9.072265625  C 15.62 9.56705729166667  15.4766666666667 10.0130208333333  15.17 10.41015625  C 15.2833333333333 10.7747395833333  15.2833333333333 11.1555989583333  15.17 11.552734375  C 15.07 11.923828125  14.89 12.2298177083333  14.63 12.470703125  C 14.69 13.1998697916667  14.5266666666667 13.7890625  14.14 14.23828125  C 13.7133333333333 14.7330729166667  13.0566666666667 14.9869791666667  12.17 15  L 11.81 15  L 11.05 15  L 10.88 15  C 10.44 15  9.96 14.9495442708333  9.44 14.8486328125  C 8.92 14.7477213541667  8.515 14.6533203125  8.225 14.5654296875  C 7.935 14.4775390625  7.53333333333333 14.3489583333333  7.02 14.1796875  C 6.2 13.8997395833333  5.67333333333333 13.7565104166667  5.44 13.75  C 5.26666666666667 13.7434895833333  5.11666666666667 13.6800130208333  4.99 13.5595703125  C 4.86333333333333 13.4391276041667  4.8 13.2942708333333  4.8 13.125  L 4.8 6.865234375  C 4.8 6.70247395833333  4.86 6.56087239583333  4.98 6.4404296875  C 5.1 6.31998697916667  5.24333333333333 6.25325520833333  5.41 6.240234375  C 5.57 6.22721354166666  5.82333333333333 6.03515625  6.17 5.6640625  C 6.51666666666667 5.29296875  6.85333333333333 4.89908854166667  7.18 4.482421875  C 7.63333333333333 3.916015625  7.97 3.525390625  8.19 3.310546875  C 8.31 3.193359375  8.41333333333333 3.037109375  8.5 2.841796875  C 8.58666666666667 2.646484375  8.645 2.48860677083333  8.675 2.3681640625  C 8.705 2.24772135416667  8.75 2.05078125  8.81 1.77734375  C 8.85666666666667 1.5234375  8.89833333333334 1.32486979166667  8.935 1.181640625  C 8.97166666666667 1.03841145833333  9.03666666666667 0.869140625000001  9.13 0.673828125  C 9.22333333333333 0.478515624999999  9.33666666666667 0.315755208333333  9.47 0.185546874999999  C 9.59666666666667 0.0618489583333326  9.74666666666667 0  9.92 0  C 10.2266666666667 0  10.5016666666667 0.0341796875000006  10.745 0.1025390625  C 10.9883333333333 0.170898437499999  11.1883333333333 0.255533854166665  11.345 0.356445312500001  C 11.5016666666667 0.457356770833333  11.635 0.589192708333333  11.745 0.751953125000001  C 11.855 0.914713541666665  11.935 1.06119791666667  11.985 1.19140625  C 12.035 1.32161458333333  12.075 1.484375  12.105 1.6796875  C 12.135 1.875  12.1516666666667 2.021484375  12.155 2.119140625  C 12.1583333333333 2.216796875  12.16 2.34375  12.16 2.5  C 12.16 2.74739583333333  12.1283333333333 2.99479166666667  12.065 3.2421875  C 12.0016666666667 3.48958333333333  11.9383333333333 3.68489583333333  11.875 3.828125  C 11.8116666666667 3.97135416666666  11.72 4.15364583333333  11.6 4.375  C 11.58 4.4140625  11.5466666666667 4.47265625  11.5 4.55078125  C 11.4533333333333 4.62890625  11.4166666666667 4.70052083333333  11.39 4.765625  C 11.3633333333333 4.83072916666667  11.3366666666667 4.90885416666666  11.31 5  L 14.08 5  C 14.6 5  15.05 5.185546875  15.43 5.556640625  Z " fill-rule="nonzero" fill="#999999" stroke="none" transform="matrix(1 0 0 1 1444 568 )" />
  </g>
</svg>